{"accessors":[{"bufferView":0,"componentType":5125,"count":8932140,"max":[8932137],"min":[0],"type":"SCALAR"},{"bufferView":1,"componentType":5126,"count":8932138,"max":[4.752546310424805,3.3054897785186768,4.6131086349487305],"min":[-4.424802780151367,-3.201568126678467,-4.3766560554504395],"type":"VEC3"},{"bufferView":2,"componentType":5126,"count":8932138,"max":[0.9999997615814209,1.0,0.9999804496765137],"min":[-0.9999993443489075,-0.9999999403953552,-0.9999997019767761],"type":"VEC3"},{"bufferView":3,"componentType":5126,"count":8932138,"max":[1.0,0.9999480247497559],"min":[1.7260197637369856e-05,0.0],"type":"VEC2"},{"bufferView":4,"componentType":5126,"count":8932138,"max":[0.9911020976428039,0.9734452919687813,0.9822505513855433,1.0],"min":[0.0,0.0,0.0,1.0],"type":"VEC4"}],"asset":{"generator":"Soft8Soft Verge3D for Blender add-on","version":"2.0"},"bufferViews":[{"buffer":0,"byteLength":35728560,"byteOffset":0,"target":34963},{"buffer":0,"byteLength":107185656,"byteOffset":35728560,"target":34962},{"buffer":0,"byteLength":107185656,"byteOffset":142914216,"target":34962},{"buffer":0,"byteLength":71457104,"byteOffset":250099872,"target":34962},{"buffer":0,"byteLength":142914208,"byteOffset":321556976,"target":34962}],"buffers":[{"byteLength":464471184,"uri":"svetitskhoveli-cathedral-mtskheta-georgia 1-5M.bin"}],"cameras":[{"extensions":{"S8S_v3d_camera_data":{"controls":"FLYING","enablePan":true,"moveSpeed":1.0,"rotateSpeed":1.0,"viewportFitInitialAspect":1.7777777777777777,"viewportFitType":"AUTO"}},"name":"Camera","perspective":{"aspectRatio":1.7777777777777777,"yfov":0.5033799372418416,"zfar":1000.0,"znear":0.10000000149011612},"type":"perspective"}],"extensions":{"S8S_v3d_data":{"lights":[{"color":[1.0,1.0,1.0],"decay":2,"distance":10.00000011175871,"intensity":100.0,"name":"Lamp","profile":"blender","shadow":{"bias":-0.0018,"cameraFar":10.00000011175871,"cameraFov":0,"cameraNear":1.0007989406585693,"enabled":true,"expBias":2.5,"mapSize":512,"radius":1.0,"slopeScaledBias":2.5},"type":"point"}]}},"extensionsUsed":["S8S_v3d_texture_data","S8S_v3d_material_data","S8S_v3d_camera_data","S8S_v3d_data","S8S_v3d_mesh_data","S8S_v3d_node_data","S8S_v3d_scene_data"],"images":[{"uri":"Image_0.jpg"},{"uri":"environment.hdr"}],"materials":[{"extensions":{"S8S_v3d_material_data":{"nodeGraph":{"edges":[{"fromNode":0,"fromOutput":0,"toInput":0,"toNode":1},{"fromNode":2,"fromOutput":0,"toInput":0,"toNode":0},{"fromNode":3,"fromOutput":0,"toInput":2,"toNode":2},{"fromNode":4,"fromOutput":0,"toInput":1,"toNode":2}],"nodes":[{"inputs":[[0.800000011920929,0.800000011920929,0.800000011920929,1.0],0.0,[1.0,0.20000000298023224,0.10000000149011612],[0.800000011920929,0.800000011920929,0.800000011920929,1.0],0.0,0.5,0.0,1.0,0.0,0.0,0.0,0.5,0.0,0.029999999329447746,1.4500000476837158,0.0,0.0,[0.0,0.0,0.0,1.0],1.0,1.0,[0.0,0.0,0.0],[0.0,0.0,0.0],[0.0,0.0,0.0]],"is_active_output":false,"name":"Principled BSDF","outputs":[[0,0,0,0]],"type":"BSDF_PRINCIPLED_BL"},{"inputs":[[0,0,0,0],[0,0,0,0],[0.0,0.0,0.0]],"is_active_output":true,"name":"Material Output","outputs":[],"type":"OUTPUT_MATERIAL_BL"},{"blendType":"MULTIPLY","inputs":[1.0,[0.5,0.5,0.5,1.0],[0.5,0.5,0.5,1.0]],"is_active_output":false,"name":"Mix","outputs":[[0.0,0.0,0.0,0.0]],"type":"MIX_RGB_BL","useClamp":false},{"colorLayer":"Col","inputs":[],"is_active_output":false,"name":"Vertex Color","outputs":[[0.0,0.0,0.0,0.0],0.0],"type":"VERTEX_COLOR_BL"},{"inputs":[[0.0,0.0,0.0]],"is_active_output":false,"name":"Image Texture","outputs":[[0.0,0.0,0.0,0.0],0.0],"projection":"FLAT","projectionBlend":0.0,"texture":0,"type":"TEX_IMAGE_BL"}]},"useCastShadows":true}},"name":"Material_0"},{"extensions":{"S8S_v3d_material_data":{"nodeGraph":{"edges":[{"fromNode":0,"fromOutput":0,"toInput":0,"toNode":1},{"fromNode":4,"fromOutput":0,"toInput":1,"toNode":2},{"fromNode":3,"fromOutput":0,"toInput":0,"toNode":2},{"fromNode":2,"fromOutput":0,"toInput":0,"toNode":0}],"nodes":[{"inputs":[[0.05087608844041824,0.05087608844041824,0.05087608844041824,1.0],1.0],"is_active_output":false,"name":"Background","outputs":[[0,0,0,0]],"type":"BACKGROUND_BL"},{"inputs":[[0,0,0,0],[0,0,0,0]],"is_active_output":true,"name":"World Output","outputs":[],"type":"OUTPUT_WORLD_BL"},{"blendType":"MIX","inputs":[0.5,[0.5,0.5,0.5,1.0],[0.05126946419477463,0.05126946419477463,0.05126946419477463,1.0]],"is_active_output":false,"name":"Mix","outputs":[[0.0,0.0,0.0,0.0]],"type":"MIX_RGB_BL","useClamp":false},{"inputs":[],"is_active_output":false,"name":"Light Path","outputs":[0.0,0.0,0.0,0.0,0.0,0.0,0.0,0.0,0.0,0.0,0.0,0.0,0.0],"type":"LIGHT_PATH_BL"},{"inputs":[[0.0,0.0,0.0]],"is_active_output":false,"name":"Environment Texture","outputs":[[0.0,0.0,0.0,0.0]],"projection":"EQUIRECTANGULAR","texture":1,"type":"TEX_ENVIRONMENT_BL"}]},"useCastShadows":true}},"name":"Verge3D_Environment_World"}],"meshes":[{"extensions":{"S8S_v3d_mesh_data":{"colorLayers":{"Col":"COLOR_0"},"uvLayers":{"UVMap":"TEXCOORD_0"}}},"name":"Mesh_0","primitives":[{"attributes":{"COLOR_0":4,"NORMAL":2,"POSITION":1,"TEXCOORD_0":3},"indices":0,"material":0,"mode":4}]}],"nodes":[{"extensions":{"S8S_v3d_node_data":{"frustumCulling":true,"groupNames":["Collection 1"],"hidden":false,"light":0,"renderOrder":0}},"name":"Lamp","rotation":[-0.2841663062572479,0.7269423604011536,0.34203389286994934,0.5232754945755005],"scale":[0.9999999403953552,0.9999997019767761,0.9999999403953552],"translation":[4.076245307922363,5.903861999511719,-1.0054539442062378]},{"extensions":{"S8S_v3d_node_data":{"frustumCulling":true,"groupNames":[],"hidden":false,"renderOrder":0,"useShadows":true}},"mesh":0,"name":"Mesh_0","rotation":[0.3853788673877716,-0.3167266249656677,-0.16122953593730927,0.8515706062316895]},{"camera":0,"extensions":{"S8S_v3d_node_data":{"frustumCulling":true,"groupNames":["Collection 1"],"hidden":false,"renderOrder":0}},"name":"Camera","rotation":[-0.2536681592464447,0.3997523784637451,0.11613907665014267,0.8731335997581482],"scale":[1.0000001192092896,1.0,1.0],"translation":[8.524649620056152,7.335813522338867,7.485255718231201]}],"samplers":[{}],"scene":0,"scenes":[{"extensions":{"S8S_v3d_scene_data":{"aaMethod":"AUTO","iblEnvironmentMode":"PMREM","physicallyCorrectLights":true,"pmremMaxTileSize":256,"shadowMap":{"esmDistanceScale":1.0,"renderReverseSided":false,"renderSingleSided":true,"type":"PCFPOISSON"},"worldMaterial":1}},"extras":{"animFrameRate":24,"coordSystem":"Z_UP_RIGHT"},"name":"Scene","nodes":[1,0,2]}],"textures":[{"extensions":{"S8S_v3d_texture_data":{"colorSpace":"srgb"}},"name":"Image_0","sampler":0,"source":0},{"extensions":{"S8S_v3d_texture_data":{"colorSpace":"linear"}},"name":"environment.hdr","sampler":0,"source":1}]}
